# xmcd CD database file
#
# Track frame offsets:
#	150
#	16497
#	30875
#	55782
#	69565
#	83972
#	99550
#	117607
#	139792
#	166162
#	180784
#	210002
#	224497
#
# Disc length: 3242 seconds
#
# Revision: 0
# Processed by: cddbd v1.4PL0 Copyright (c) Steve Scherf et al.
# Submitted via: CdAid 2001.05.15.01
#
DISCID=a50ca80d
DTITLE=dr. soul and the chain of fools - Live aus dem Südbahnhof
DYEAR=1900
DGENRE=
TTITLE0=Mustang Sally
TTITLE1=Barefootin'
TTITLE2=Gotta get You of my Mind
TTITLE3=Think
TTITLE4=Shake your Tailfeather
TTITLE5=Peter Gunn
TTITLE6=Gimme some Loving
TTITLE7=I Don't Wanna Be Right
TTITLE8=Chain Of Fools
TTITLE9=Minnie The Moocher
TTITLE10=Mama Told Me Not To Come
TTITLE11=Soul Man
TTITLE12=Knock On Wood
EXTD=
EXTT0=
EXTT1=
EXTT2=
EXTT3=
EXTT4=
EXTT5=
EXTT6=
EXTT7=
EXTT8=
EXTT9=
EXTT10=
EXTT11=
EXTT12=
PLAYORDER=
